<svg xmlns="http://www.w3.org/2000/svg" version="1.1" xmlns:xlink="http://www.w3.org/1999/xlink" xmlns:svgjs="http://svgjs.dev/svgjs" width="1000" height="625" viewBox="0 0 1000 625"><g transform="matrix(1,0,0,1,-0.2718142173708884,0.2530458455855751)"><svg viewBox="0 0 395 247" data-background-color="#ffffff" preserveAspectRatio="xMidYMid meet" height="625" width="1000" xmlns="http://www.w3.org/2000/svg" xmlns:xlink="http://www.w3.org/1999/xlink"><g id="tight-bounds" transform="matrix(1,0,0,1,0.10736661586150831,-0.10000371817542941)"><svg viewBox="0 0 394.7852537007691 247.2" height="247.2" width="394.7852537007691"><g><svg viewBox="0 0 394.7852537007691 247.2" height="247.2" width="394.7852537007691"><g transform="matrix(1,0,0,1,194.94357165293394,0)"><svg viewBox="0 0 199.84168204783518 247.2" height="247.2" width="199.84168204783518"><g id="textblocktransform"><svg viewBox="0 0 199.84168204783518 247.2" height="247.2" width="199.84168204783518" id="textblock"><g><svg viewBox="0 0 199.84168204783518 247.2" height="247.2" width="199.84168204783518"><g transform="matrix(1,0,0,1,0,0)"><svg width="199.84168204783518" viewBox="3.7666666507720947 -36.1953125 29.28515625 36.23102569580078" height="247.2" data-palette-color="#a437db"><path d="M7.9 0L7.9 0Q7.55 0 7.25-0.05L7.25-0.05Q5.85-0.1 4.85-1.13 3.85-2.15 3.85-3.55L3.85-3.55Q3.9-5.8 3.8-17.93 3.7-30.05 3.9-32.35L3.9-32.35Q3.95-33.7 5.03-34.7 6.1-35.7 7.55-35.65L7.55-35.65Q8-35.8 8.45-35.8L8.45-35.8Q10.4-36 11.33-36.05 12.25-36.1 14.38-36.18 16.5-36.25 17.98-36 19.45-35.75 21.33-35.33 23.2-34.9 24.85-34 26.5-33.1 27.85-31.85L27.85-31.85Q30.45-29.5 31.78-26.2 33.1-22.9 33.05-19.03 33-15.15 31.93-11.88 30.85-8.6 28.6-5.93 26.35-3.25 23.35-1.75L23.35-1.75Q20.2-0.25 15.05 0L15.05 0Q14 0.05 11.3 0.03 8.6 0 7.9 0L7.9 0ZM14.75-6.85L14.75-6.85Q18.45-7.1 20.25-7.95L20.25-7.95Q23.25-9.4 24.85-12.8 26.45-16.2 26-20.38 25.55-24.55 23.15-26.75L23.15-26.75Q21.2-28.5 18.23-28.95 15.25-29.4 10.8-29.05L10.8-29.05Q10.75-24.3 10.75-21.75 10.75-19.2 10.8-14.2 10.85-9.2 10.85-6.9L10.85-6.9Q13.3-6.8 14.75-6.85L14.75-6.85Z" opacity="1" transform="matrix(1,0,0,1,0,0)" fill="#a437db" class="wordmark-text-0" data-fill-palette-color="primary" id="text-0"></path></svg></g></svg></g></svg></g></svg></g><g transform="matrix(1,0,0,1,0,84.48620137353302)"><svg viewBox="0 0 78.22759725293393 78.22759725293393" height="78.22759725293393" width="78.22759725293393"><g><svg></svg></g><g id="icon-0"><svg viewBox="0 0 78.22759725293393 78.22759725293393" height="78.22759725293393" width="78.22759725293393"><g><path d="M0 39.114c0-21.602 17.512-39.114 39.114-39.114 21.602 0 39.114 17.512 39.114 39.114 0 21.602-17.512 39.114-39.114 39.114-21.602 0-39.114-17.512-39.114-39.114zM39.114 55.935c9.29 0 16.821-7.531 16.821-16.821 0-9.29-7.531-16.821-16.821-16.821-9.29 0-16.821 7.531-16.821 16.821 0 9.29 7.531 16.821 16.821 16.821z" data-fill-palette-color="accent" fill="#a437db" stroke="transparent"></path></g><g transform="matrix(1,0,0,1,50.10042249808416,46.42124549255279)"><svg viewBox="0 0 -21.973247743234378 -14.61489373217165" height="-14.61489373217165" width="-21.973247743234378"><g><svg xmlns="http://www.w3.org/2000/svg" xmlns:xlink="http://www.w3.org/1999/xlink" version="1.1" x="0" y="0" viewBox="0 17.643001556396484 99.92597961425781 66.46298217773438" enable-background="new 0 0 100 100" xml:space="preserve" height="-14.61489373217165" width="-21.973247743234378" class="icon-s-0" data-fill-palette-color="accent" id="s-0"><g fill="#a437db" data-fill-palette-color="accent"><line x1="39.865" y1="18.336" x2="39.865" y2="18.339" fill="#a437db" data-fill-palette-color="accent"></line><path d="M39.865 18.339c-0.098-0.405-0.461-0.696-0.884-0.696h-8.387c-0.24 0.001-0.461 0.094-0.634 0.263l-0.002-0.002c-0.002 0.002-0.003 0.005-0.004 0.007-0.002 0.001-0.005 0.002-0.007 0.004l0.002 0.002c-0.173 0.177-0.262 0.402-0.263 0.635v64.551c0.001 0.234 0.09 0.458 0.263 0.635l-0.002 0.003c0.001 0.001 0.005 0.002 0.007 0.004 0.001 0.003 0.002 0.005 0.004 0.007l0.002-0.002c0.173 0.169 0.395 0.262 0.634 0.264h23.879c0.279-0.002 0.54-0.125 0.716-0.35 0.125-0.16 0.194-0.359 0.194-0.561 0-0.071-0.01-0.143-0.026-0.212L39.865 18.339zM30.969 82.73V18.928h7.716L53.996 82.73H30.969z" fill="#a437db" data-fill-palette-color="accent"></path><polygon points="97.493,66.557 97.462,66.57 97.457,66.572  " fill="#a437db" data-fill-palette-color="accent"></polygon><path d="M98.83 64.138l-0.003 0.003c-0.54 0.528-1.176 0.954-1.871 1.249l0 0c-0.698 0.294-1.45 0.46-2.271 0.469l-0.074 0.002c-0.805-0.003-1.548-0.154-2.239-0.433-0.688-0.276-1.318-0.681-1.861-1.187l-0.273-0.267-0.004-0.004-0.065-0.062-0.003-0.004-0.002-0.002c-1.414-1.322-3.072-2.391-4.903-3.13-1.832-0.738-3.839-1.146-5.919-1.146-0.06 0-0.119 0.002-0.18 0.003V59.63c-0.008 0-0.016 0.001-0.024 0.001h-0.013c-2.102 0.027-4.121 0.469-5.957 1.246-1.516 0.642-2.894 1.52-4.114 2.562-0.324 0.192-0.638 0.421-0.927 0.701v0.001c-0.539 0.528-1.174 0.953-1.869 1.248l0 0c-0.697 0.294-1.449 0.46-2.271 0.469l-0.073 0.002c-0.806-0.003-1.549-0.154-2.241-0.433-0.684-0.276-1.313-0.679-1.855-1.183l-0.27-0.265-0.004-0.003-0.076-0.072-0.003-0.003c-0.243-0.228-0.49-0.424-0.718-0.612l-1.493-1.234 2.678 10.921 0 0 2.72 11.085 0.479 0.024c0.262 0.014 0.525 0.02 0.79 0.02h0.005l0.166-0.001 0 0h0.004 0.003c2.114-0.025 4.146-0.467 5.992-1.249 1.513-0.641 2.888-1.516 4.107-2.558 0.327-0.192 0.643-0.424 0.933-0.707h-0.001c0.538-0.525 1.171-0.951 1.864-1.244l0.007-0.002c0.696-0.295 1.45-0.461 2.27-0.471h0.032l0.008-0.001h0.035c0.803 0 1.546 0.153 2.239 0.433 0.687 0.277 1.317 0.682 1.856 1.184l0.274 0.268 0.003 0.004 0.07 0.066 0.004 0.003c1.414 1.323 3.073 2.391 4.907 3.132 1.832 0.737 3.84 1.144 5.92 1.144l0.171-0.001h0.003 0.004c1.626-0.019 3.202-0.287 4.684-0.764l0.445-0.144v-9.889-1.673-8.539L98.83 64.138zM98.641 82.243c-1.232 0.354-2.525 0.562-3.858 0.576h-0.003l-0.161 0.001c-1.913 0-3.758-0.373-5.44-1.051-1.683-0.679-3.206-1.659-4.506-2.874l-0.065-0.061-0.278-0.273-0.006-0.006-0.006-0.005c-0.652-0.609-1.416-1.1-2.253-1.437-0.838-0.338-1.752-0.525-2.72-0.525h-0.07-0.035l-0.044 0.005c-0.963 0.019-1.868 0.216-2.697 0.567h0.001c-0.847 0.357-1.615 0.874-2.268 1.512l-0.002 0.001c-0.22 0.217-0.468 0.397-0.731 0.549l-0.053 0.031-0.047 0.039c-1.137 0.976-2.412 1.788-3.811 2.38-1.694 0.718-3.562 1.125-5.504 1.146H64.08l-0.163 0.001c-0.084 0-0.167-0.004-0.249-0.006l-1.856-7.567c0.665 0.201 1.37 0.311 2.107 0.311h0.071 0.004V75.29l0.004 0.268c0.986-0.012 1.914-0.215 2.76-0.573s1.614-0.874 2.267-1.512h0.001c0.221-0.217 0.467-0.396 0.734-0.55l0.053-0.03 0.046-0.04c1.135-0.976 2.411-1.788 3.809-2.38 1.694-0.719 3.563-1.125 5.508-1.145 0.062-0.002 0.12-0.002 0.169-0.002 1.911 0 3.755 0.374 5.436 1.053 1.684 0.679 3.206 1.66 4.506 2.874l0.06 0.057v0.001l0.28 0.272 0.005 0.005 0.006 0.006c0.654 0.61 1.419 1.102 2.257 1.438l0 0c0.84 0.34 1.755 0.526 2.726 0.526h0.071 0.005v-0.161l0.002 0.161c0.987-0.012 1.913-0.215 2.761-0.573l-0.026 0.011 0.026-0.011c0.415-0.177 0.81-0.391 1.184-0.638V82.243zM98.641 72.721c-0.499 0.447-1.066 0.818-1.685 1.081l-0.006 0.002c-0.698 0.294-1.449 0.459-2.269 0.47h-0.063c-0.808-0.001-1.551-0.153-2.245-0.433l-0.006-0.003 0.005 0.002c-0.686-0.274-1.316-0.68-1.857-1.184l-0.277-0.27-0.004-0.003-0.064-0.062-0.003-0.003-0.004-0.004c-1.413-1.32-3.07-2.388-4.901-3.127s-3.839-1.146-5.917-1.146c-0.061 0-0.127 0.001-0.199 0.003l0 0c-2.108 0.024-4.137 0.465-5.978 1.245-1.515 0.642-2.89 1.518-4.108 2.561-0.326 0.191-0.643 0.421-0.933 0.705v-0.001c-0.539 0.528-1.174 0.954-1.869 1.248-0.698 0.295-1.453 0.461-2.274 0.472h-0.063c-0.808 0-1.552-0.153-2.245-0.433l-0.001-0.001-0.009-0.004 0.009 0.004c-0.079-0.031-0.155-0.071-0.233-0.107l-1.991-8.116c0.53 0.411 1.117 0.75 1.744 1.004 0.84 0.338 1.753 0.522 2.721 0.524h0.008l0.083-0.002h-0.003c0.985-0.01 1.91-0.212 2.757-0.57l0 0c0.846-0.358 1.614-0.874 2.267-1.513v0.001c0.221-0.216 0.467-0.396 0.732-0.549l0.052-0.03 0.045-0.039c1.137-0.977 2.415-1.79 3.813-2.382 1.693-0.717 3.558-1.124 5.498-1.146 0.071 0 0.132-0.002 0.176-0.002 1.912 0 3.756 0.374 5.438 1.052 1.682 0.679 3.206 1.661 4.507 2.877l0.059 0.057v-0.002l0.279 0.273 0.005 0.006 0.006 0.004c0.656 0.611 1.421 1.104 2.258 1.44 0.838 0.338 1.752 0.522 2.72 0.524h0.006l0.085-0.002h-0.004c0.986-0.01 1.91-0.213 2.758-0.57l0.005-0.002c0.413-0.176 0.807-0.39 1.179-0.636V72.721z" fill="#a437db" data-fill-palette-color="accent"></path><polygon points="91.894,75.032 91.893,75.031 91.887,75.029  " fill="#a437db" data-fill-palette-color="accent"></polygon><path d="M0 33.595v8.013 0.534 7.371 0.642 0.642 7.372 0.533 7.371 0.643 0.643 7.37 0.534 8.654h22.788v-8.654-0.534-7.37-1.285-7.371-0.533-7.372-1.284-7.371-0.534-8.655H0V33.595zM1.285 42.143v-0.534-7.371h20.218v7.371 0.534 7.371H1.285V42.143zM1.285 58.702v-0.533-7.372h20.218v7.372 0.533 7.371H1.285V58.702zM1.285 75.263v-0.534-7.37h20.218v7.37 0.534 7.37H1.285V75.263z" fill="#a437db" data-fill-palette-color="accent"></path></g></svg></g></svg></g></svg></g></svg></g></svg></g><defs></defs></svg><rect width="394.7852537007691" height="247.2" fill="none" stroke="none" visibility="hidden"></rect></g></svg></g></svg>